<?xml version="1.0" standalone="no"?>
<!DOCTYPE svg PUBLIC "-//W3C//DTD SVG 20010904//EN"
 "http://www.w3.org/TR/2001/REC-SVG-20010904/DTD/svg10.dtd">
<svg version="1.0" xmlns="http://www.w3.org/2000/svg"
 width="512.000000pt" height="512.000000pt" viewBox="0 0 512.000000 512.000000"
 preserveAspectRatio="xMidYMid meet">

<g transform="translate(0.000000,512.000000) scale(0.100000,-0.100000)"
fill="#000000" stroke="none">
<path d="M2733 4517 c-16 -12 -74 -63 -129 -113 -269 -247 -345 -316 -419
-379 -44 -37 -139 -122 -210 -189 -72 -66 -181 -163 -243 -215 -61 -52 -112
-100 -112 -107 0 -19 48 -42 125 -59 76 -18 288 -45 356 -45 89 0 138 -20 92
-37 -40 -15 -122 -74 -184 -134 -37 -35 -97 -91 -135 -124 -68 -60 -141 -161
-163 -224 -24 -71 -32 -160 -21 -224 15 -80 38 -123 105 -195 30 -33 55 -67
55 -76 0 -10 -22 -54 -50 -99 -27 -45 -56 -109 -65 -141 -8 -32 -17 -62 -21
-65 -3 -3 -56 -6 -117 -6 -102 0 -117 -3 -168 -27 -40 -20 -69 -45 -105 -90
-45 -58 -49 -67 -49 -118 0 -49 5 -63 47 -126 26 -39 84 -106 128 -148 56 -53
86 -90 96 -119 32 -89 123 -180 236 -232 66 -31 79 -31 156 -1 89 35 123 59
151 105 49 79 97 80 216 5 107 -69 249 -137 330 -161 50 -15 102 -18 305 -18
l245 0 5 -55 c7 -69 17 -86 80 -143 72 -65 143 -90 255 -91 75 -1 97 3 131 21
65 35 103 71 131 127 33 66 143 185 191 207 130 59 174 131 207 333 7 45 22
107 34 138 25 68 27 150 6 231 -9 36 -15 104 -15 181 0 109 -3 128 -23 167
-40 76 -159 129 -288 129 -53 0 -73 22 -114 124 -38 97 -39 103 -16 194 7 24
9 60 5 80 -10 58 -54 162 -92 220 -34 52 -252 261 -344 331 -27 19 -48 38 -48
42 0 4 30 10 68 13 337 29 500 55 537 86 23 19 18 46 -12 66 -42 27 -484 420
-933 829 -85 78 -162 144 -172 148 -9 3 -29 -4 -45 -16z m353 -272 c376 -340
741 -665 782 -695 39 -29 40 -43 7 -58 -66 -30 -365 -72 -515 -72 -92 0 -120
-8 -120 -37 0 -15 5 -23 14 -21 8 2 35 -18 60 -44 25 -27 50 -48 56 -48 5 0
10 -4 10 -10 0 -5 9 -10 20 -10 11 0 20 -6 20 -13 0 -10 -22 -13 -82 -14 -46
0 -116 -8 -157 -17 -41 -8 -77 -13 -80 -10 -3 3 5 25 18 49 29 54 38 123 19
147 -11 14 -23 16 -84 9 -40 -5 -86 -16 -104 -25 -18 -9 -40 -16 -49 -16 -12
-1 -11 -4 5 -13 42 -24 74 -55 74 -71 0 -9 -13 -44 -29 -78 -17 -34 -27 -66
-24 -71 7 -12 -53 1 -93 21 -30 14 -31 17 -30 71 1 51 -1 56 -22 59 -19 3 -26
-4 -40 -37 -13 -31 -22 -41 -37 -39 -28 4 -25 62 6 125 21 43 28 49 64 54 40
6 40 6 -11 8 -28 0 -67 4 -85 7 l-34 7 28 -30 c25 -26 26 -31 12 -43 -8 -7
-15 -21 -15 -31 0 -11 -5 -19 -11 -19 -7 0 -8 -11 -4 -31 6 -27 5 -30 -11 -26
-11 3 -45 9 -76 13 -50 5 -58 4 -58 -10 0 -13 7 -15 40 -10 30 5 49 1 80 -15
22 -11 48 -21 56 -21 17 0 49 -36 75 -85 19 -35 40 -39 53 -9 9 20 11 19 46
-18 30 -30 37 -45 35 -71 -2 -23 4 -38 21 -54 26 -24 33 -56 10 -47 -8 3 -17
0 -21 -6 -4 -7 2 -14 14 -17 24 -6 29 -23 6 -23 -8 0 -12 -6 -9 -13 2 -7 -5
-22 -16 -34 -11 -12 -20 -26 -20 -31 0 -17 -32 -72 -39 -68 -4 3 -14 23 -21
46 -9 28 -17 37 -24 30 -5 -5 -17 -10 -26 -10 -13 0 -44 -34 -45 -50 0 -10
-45 -50 -56 -50 -5 0 -15 -13 -20 -29 -8 -23 -19 -30 -52 -37 -34 -7 -42 -14
-42 -31 0 -31 -6 -34 -74 -34 -54 -1 -59 -2 -46 -16 26 -26 14 -49 -17 -32
-13 7 -23 7 -32 -1 -10 -8 -15 -7 -20 5 -4 10 -11 13 -18 8 -7 -4 -17 -8 -23
-8 -5 -1 -19 -5 -29 -10 -12 -5 -34 -2 -63 8 -24 9 -41 11 -37 6 4 -8 -1 -9
-17 -4 -13 5 -46 9 -74 11 -31 1 -53 8 -61 19 -8 11 -20 14 -38 9 -28 -7 -38
12 -11 22 23 9 19 33 -5 27 -11 -3 -20 -1 -20 4 0 5 -12 9 -27 8 -21 0 -28 5
-27 18 1 9 -5 17 -13 17 -7 0 -22 13 -31 30 -9 16 -24 30 -32 30 -16 0 -50 34
-50 50 0 5 6 13 13 17 18 10 29 41 17 48 -4 3 -10 0 -12 -7 -2 -6 -10 -8 -16
-4 -13 8 -17 72 -4 78 4 2 18 20 31 41 12 20 27 37 33 37 6 0 8 6 5 14 -4 10
5 16 29 20 36 7 44 20 19 30 -22 8 -19 36 4 36 19 0 36 24 32 46 -2 16 19 30
57 38 28 5 35 3 39 -14 3 -11 9 -20 13 -20 16 0 91 82 86 95 -8 21 4 25 28 10
29 -19 57 -4 29 16 -11 8 -23 26 -27 42 -3 15 -11 27 -17 27 -6 0 -7 5 -4 10
3 6 19 10 35 10 37 0 61 10 54 22 -3 5 -11 5 -19 -2 -8 -7 -15 -7 -19 -1 -4 5
4 13 16 17 12 3 28 13 36 20 7 8 29 14 47 14 29 0 55 14 44 25 -2 1 -76 8
-164 14 -374 27 -542 57 -533 96 2 8 64 66 138 131 74 64 186 165 250 224 63
59 154 141 202 181 84 72 299 266 445 402 47 44 80 67 92 65 11 -2 153 -124
317 -273z m-301 -1035 c-5 -8 -11 -8 -17 -2 -6 6 -7 16 -3 22 5 8 11 8 17 2 6
-6 7 -16 3 -22z m522 -56 c34 -18 47 -30 45 -44 -2 -10 2 -21 8 -25 17 -10 11
-25 -15 -37 -13 -6 -29 -24 -34 -40 -7 -19 -22 -34 -45 -43 -19 -8 -41 -24
-49 -36 -19 -27 -93 -30 -131 -6 -14 10 -26 13 -26 7 0 -5 4 -10 9 -10 12 0 8
-43 -5 -47 -15 -5 -35 42 -23 54 9 9 -6 69 -22 87 -13 14 -11 48 1 41 6 -4 22
0 35 9 13 9 32 16 42 16 12 0 18 8 20 26 2 36 14 45 67 51 26 3 49 10 52 14 8
14 19 11 71 -17z m-530 -26 c-3 -8 -6 -5 -6 6 -1 11 2 17 5 13 3 -3 4 -12 1
-19z m323 -28 c0 -5 -5 -10 -11 -10 -5 0 -7 5 -4 10 3 6 8 10 11 10 2 0 4 -4
4 -10z m432 -261 c22 -12 22 -13 3 -18 -72 -21 -140 -89 -120 -121 3 -6 -1
-13 -9 -16 -9 -3 -16 -12 -16 -20 0 -8 -4 -14 -10 -14 -15 0 -50 -33 -50 -47
0 -10 -8 -11 -27 -7 -24 6 -26 5 -15 -8 10 -13 8 -18 -15 -34 -14 -10 -38 -31
-52 -45 -23 -23 -91 -56 -91 -43 0 2 -12 -2 -27 -10 l-28 -14 5 72 c4 61 10
79 43 127 65 99 165 180 257 210 33 11 122 4 152 -12z m-742 -94 c7 -9 10 -18
7 -22 -8 -7 -37 15 -37 28 0 14 16 11 30 -6z m-903 -141 c-9 -9 -28 6 -21 18
4 6 10 6 17 -1 6 -6 8 -13 4 -17z m23 -44 c0 -5 -7 -10 -16 -10 -8 0 -12 5 -9
10 3 6 10 10 16 10 5 0 9 -4 9 -10z m1159 -201 c18 -11 30 -24 25 -28 -10 -9
-147 -46 -209 -56 -39 -6 -38 -5 40 48 44 30 87 55 95 56 8 0 30 -8 49 -20z
m-1122 -27 c68 -39 94 -50 128 -55 17 -3 66 -14 110 -26 98 -26 211 -40 307
-36 222 8 488 26 522 34 22 5 44 7 48 5 10 -6 137 33 154 47 6 4 36 7 68 6 54
-3 61 -6 88 -40 36 -45 57 -46 96 -7 17 17 38 30 47 30 8 0 27 7 41 16 23 16
27 16 60 -2 30 -16 35 -23 30 -45 -3 -15 -2 -30 1 -33 4 -4 8 -31 10 -62 3
-42 0 -56 -12 -60 -8 -4 -15 -17 -15 -30 0 -13 -4 -32 -9 -42 -5 -9 -17 -34
-25 -54 -9 -20 -27 -50 -40 -65 -12 -15 -30 -48 -40 -73 -19 -49 -67 -100 -94
-100 -10 0 -34 -11 -54 -25 -20 -14 -45 -25 -55 -25 -11 0 -24 -5 -31 -12 -7
-7 -22 -13 -35 -14 -33 -2 -67 -15 -67 -25 0 -5 -10 -9 -23 -9 -27 0 -47 -17
-41 -35 7 -17 -22 -85 -35 -85 -6 0 -11 -9 -11 -20 0 -11 -6 -20 -14 -20 -7 0
-16 -9 -19 -20 -4 -16 -11 -18 -43 -13 -22 3 -48 14 -60 24 -28 26 -42 24 -46
-8 -3 -25 -7 -28 -45 -31 -48 -4 -52 5 -28 52 22 41 10 45 -14 5 -22 -36 -27
-89 -11 -119 14 -25 -17 -30 -177 -25 -97 3 -149 10 -194 24 -34 12 -65 18
-70 16 -12 -8 -120 45 -169 84 -25 20 -66 59 -92 87 -47 50 -48 51 -67 168
-10 64 -21 119 -24 122 -2 3 -15 -17 -28 -43 -12 -26 -33 -62 -46 -79 -17 -23
-20 -33 -11 -42 9 -9 9 -15 -2 -26 -13 -13 -18 -12 -37 3 -12 10 -23 31 -25
47 -3 25 -8 29 -33 30 -62 1 -95 15 -95 40 0 13 6 27 13 31 15 9 87 115 87
128 0 5 -7 16 -15 25 -19 21 -39 134 -25 138 16 6 12 32 -5 32 -8 0 -15 5 -15
10 0 6 4 10 9 10 5 0 12 19 15 43 7 45 39 107 56 107 5 0 10 9 10 19 0 15 33
51 47 51 1 0 24 -12 50 -28z m-441 -390 c33 -21 92 -60 132 -86 39 -26 72 -49
72 -51 0 -2 -9 -24 -20 -50 -11 -26 -20 -57 -20 -70 0 -35 20 -74 42 -81 21
-6 38 -42 38 -80 0 -19 -5 -24 -27 -25 -16 0 -22 -3 -14 -6 7 -3 31 0 52 7 45
15 79 4 137 -45 40 -33 40 -42 2 -50 -35 -8 -36 -13 -11 -63 43 -87 35 -122
-29 -122 -81 0 -207 88 -272 189 -42 67 -39 81 22 81 28 0 50 3 50 8 0 6 -33
10 -96 12 -29 1 -166 130 -215 202 -68 99 -77 159 -36 219 43 61 110 65 193
11z m109 -2 c3 -5 -1 -10 -9 -10 -9 0 -16 5 -16 10 0 6 4 10 9 10 6 0 13 -4
16 -10z m2340 -206 c-9 -19 -22 -34 -30 -34 -8 0 -15 -7 -15 -15 0 -20 -75
-95 -95 -95 -12 0 -15 -6 -10 -21 6 -18 4 -19 -12 -11 -10 5 -35 17 -55 27
-21 9 -38 22 -38 29 1 36 114 124 210 163 64 26 74 17 45 -43z m-445 -203 c0
-5 21 -20 47 -33 50 -25 123 -93 123 -116 0 -8 -8 -25 -19 -38 -18 -23 -19
-23 -24 -4 -4 14 -14 20 -34 20 -22 0 -25 2 -13 10 19 13 8 13 -24 0 -23 -8
-31 -5 -66 30 -42 41 -64 51 -54 25 4 -8 0 -22 -7 -31 -10 -13 -10 -17 2 -25
8 -5 22 -9 31 -9 9 0 19 -4 22 -9 8 -12 -21 -34 -33 -26 -7 3 -8 0 -5 -9 7
-18 30 -21 39 -6 5 8 43 8 98 1 4 -1 7 -15 7 -32 0 -26 -3 -30 -17 -24 -38 15
-53 17 -53 5 0 -7 7 -10 15 -6 9 3 15 0 15 -8 0 -8 14 -19 30 -25 35 -12 39
-29 8 -35 -35 -7 -58 -4 -58 8 0 6 -5 4 -10 -4 -8 -13 -11 -11 -16 8 -8 29
-28 28 -48 -3 -21 -31 -20 -35 4 -35 11 0 20 -5 20 -11 0 -5 -4 -7 -10 -4 -5
3 -10 2 -10 -3 0 -6 7 -12 15 -16 17 -6 20 -26 5 -26 -6 0 -22 11 -36 25 -13
14 -28 24 -32 24 -4 -1 -22 -1 -40 0 -31 1 -32 2 -17 17 12 13 19 14 30 4 9
-7 15 -8 15 -2 0 5 9 12 20 15 11 3 23 13 27 24 3 10 11 21 17 25 6 4 8 10 4
13 -3 4 -19 -7 -34 -24 -29 -32 -39 -35 -28 -7 3 9 10 13 15 10 12 -7 11 17
-1 36 -8 13 -11 12 -16 -6 -4 -15 -11 -20 -25 -17 -10 3 -19 9 -19 14 0 13
-38 11 -46 -2 -9 -15 13 -28 37 -22 10 3 19 1 19 -5 0 -12 -34 -22 -47 -13 -5
3 -15 15 -21 26 -10 18 -11 17 -12 -12 0 -24 -4 -30 -17 -28 -10 2 -24 4 -30
4 -18 1 -16 14 7 39 21 22 28 44 8 24 -7 -7 -23 -12 -36 -12 -21 0 -22 -2 -12
-15 10 -12 10 -15 -2 -15 -19 0 -61 91 -60 129 1 29 45 105 74 128 27 22 106
44 183 52 44 5 83 9 88 10 4 0 7 -3 7 -8z m130 -271 c0 -5 -7 -10 -16 -10 -8
0 -12 5 -9 10 3 6 10 10 16 10 5 0 9 -4 9 -10z m72 -49 c11 6 23 7 26 3 4 -4
1 -9 -6 -11 -6 -3 -10 -9 -6 -14 3 -5 -1 -9 -9 -9 -8 0 -17 -7 -21 -15 -3 -8
-13 -15 -22 -15 -11 0 -14 5 -10 16 5 13 2 15 -14 11 -22 -6 -23 -5 -14 17 3
9 13 16 21 16 10 0 13 6 9 18 -4 11 0 9 10 -5 13 -18 20 -21 36 -12z m-459
-50 c2 -11 0 -24 -6 -30 -8 -8 -8 -14 1 -23 17 -17 15 -28 -4 -28 -13 0 -14
-3 -4 -15 7 -8 16 -12 21 -9 5 3 9 -4 9 -15 0 -12 5 -21 11 -21 6 0 8 12 5 33
-3 17 -3 27 0 20 4 -9 11 -9 30 -1 17 8 21 14 12 19 -7 4 -16 3 -21 -4 -6 -8
-7 -6 -3 6 5 16 -5 22 -27 18 -13 -2 -3 22 10 26 6 2 20 -5 31 -17 11 -12 26
-18 34 -15 21 8 98 -13 98 -26 0 -6 5 -7 10 -4 6 3 10 -4 10 -16 0 -18 -2 -19
-15 -9 -13 11 -14 10 -9 -4 9 -22 25 -20 31 5 4 15 11 19 27 15 11 -3 27 -6
34 -6 6 0 12 -9 12 -20 0 -21 14 -27 25 -11 11 19 63 -10 80 -45 22 -46 17
-70 -15 -66 -18 2 -21 0 -11 -6 10 -7 4 -13 -25 -22 -51 -17 -108 -16 -174 5
-95 29 -106 35 -163 89 -52 50 -55 55 -58 110 -3 40 0 61 11 71 19 20 27 19
33 -4z m494 -3 c-3 -8 -6 -5 -6 6 -1 11 2 17 5 13 3 -3 4 -12 1 -19z m-207 1
c0 -6 -7 -8 -16 -5 -8 3 -12 2 -9 -3 3 -5 1 -12 -5 -16 -5 -3 -10 3 -10 14 0
14 6 21 20 21 11 0 20 -5 20 -11z m84 -25 c12 -3 22 -13 22 -22 1 -9 4 -25 9
-34 5 -13 3 -18 -10 -18 -9 0 -13 5 -9 11 4 8 -1 9 -17 4 -16 -4 -19 -3 -11 3
11 7 10 11 -1 20 -8 7 -14 27 -14 44 0 18 2 25 4 16 3 -10 14 -20 27 -24z
m-56 -25 c13 0 22 -5 22 -14 0 -16 -21 -20 -34 -8 -4 4 -15 8 -23 8 -9 0 -18
6 -21 14 -4 11 0 12 14 6 11 -4 29 -7 42 -6z"/>
<path d="M2462 3340 c-9 -11 -19 -33 -22 -48 -5 -24 -10 -27 -48 -28 -23 -1
-45 2 -48 7 -7 12 -44 11 -44 -1 0 -10 31 -20 65 -20 11 0 44 -1 74 -3 35 -1
59 3 68 11 25 26 11 102 -19 102 -5 0 -16 -9 -26 -20z m28 -45 c0 -8 -4 -15
-10 -15 -5 0 -10 7 -10 15 0 8 5 15 10 15 6 0 10 -7 10 -15z"/>
<path d="M2195 3250 c-3 -5 -1 -10 4 -10 6 0 11 5 11 10 0 6 -2 10 -4 10 -3 0
-8 -4 -11 -10z"/>
<path d="M2410 3097 c-69 -36 -85 -84 -20 -57 26 11 41 10 87 0 61 -15 86 -7
91 28 8 51 -85 68 -158 29z"/>
<path d="M2778 2813 c7 -3 16 -2 19 1 4 3 -2 6 -13 5 -11 0 -14 -3 -6 -6z"/>
<path d="M2616 2661 c-3 -5 0 -14 7 -19 10 -8 13 -6 14 9 2 19 -11 26 -21 10z"/>
<path d="M2530 2650 c0 -13 11 -13 30 0 12 8 11 10 -7 10 -13 0 -23 -4 -23
-10z"/>
<path d="M2260 2534 c0 -8 5 -12 10 -9 6 4 8 11 5 16 -9 14 -15 11 -15 -7z"/>
<path d="M3060 3020 c0 -5 5 -10 10 -10 6 0 10 5 10 10 0 6 -4 10 -10 10 -5 0
-10 -4 -10 -10z"/>
<path d="M3050 2969 c0 -5 5 -7 10 -4 6 3 10 8 10 11 0 2 -4 4 -10 4 -5 0 -10
-5 -10 -11z"/>
<path d="M3300 1939 c0 -11 5 -17 10 -14 6 3 10 13 10 21 0 8 -4 14 -10 14 -5
0 -10 -9 -10 -21z"/>
<path d="M2877 1652 c-19 -21 -52 -110 -44 -119 3 -3 13 19 21 48 9 29 23 61
33 71 9 10 14 18 11 18 -3 0 -12 -8 -21 -18z"/>
<path d="M3265 1440 c4 -6 10 -8 15 -5 13 8 24 -15 12 -27 -14 -14 13 -42 29
-32 7 4 10 1 7 -7 -3 -8 -15 -13 -27 -12 -25 3 -28 -12 -5 -21 22 -8 112 34
119 57 4 10 2 24 -4 31 -6 7 -8 16 -4 19 3 4 -6 7 -20 7 -15 0 -27 -4 -27 -9
0 -5 -3 -17 -7 -27 -4 -12 -3 -15 5 -10 7 4 12 1 12 -7 0 -8 -7 -17 -15 -21
-8 -3 -15 0 -15 6 0 6 -8 20 -17 30 -15 17 -15 20 -3 28 11 7 4 10 -23 10 -23
0 -36 -4 -32 -10z"/>
<path d="M3190 1370 c0 -5 5 -10 11 -10 5 0 7 5 4 10 -3 6 -8 10 -11 10 -2 0
-4 -4 -4 -10z"/>
<path d="M3207 1343 c-4 -3 -7 -11 -7 -17 0 -6 5 -5 12 2 6 6 9 14 7 17 -3 3
-9 2 -12 -2z"/>
<path d="M3235 1330 c-3 -5 -2 -10 3 -10 4 0 17 -8 28 -17 38 -35 102 -33 131
3 26 34 16 43 -21 18 -24 -15 -26 -15 -26 0 0 10 -4 15 -10 11 -5 -3 -7 -12
-3 -20 7 -20 -4 -19 -34 5 -28 22 -58 26 -68 10z"/>
<path d="M3224 1278 l-19 -23 23 19 c21 18 27 26 19 26 -2 0 -12 -10 -23 -22z"/>
<path d="M3395 1070 c-3 -5 -1 -10 4 -10 6 0 11 5 11 10 0 6 -2 10 -4 10 -3 0
-8 -4 -11 -10z"/>
<path d="M3364 997 c-6 -7 -8 -20 -5 -28 5 -14 10 -14 39 -2 33 13 43 33 18
33 -8 0 -20 2 -28 5 -7 2 -18 -1 -24 -8z"/>
<path d="M3545 940 c3 -5 8 -10 11 -10 2 0 4 5 4 10 0 6 -5 10 -11 10 -5 0 -7
-4 -4 -10z"/>
</g>
</svg>
